#!OML:ASF E:\motion texture\Top Level 1\Subject 1\Session 1\male.ASF
:FULLY-SPECIFIED
:DEGREES
298
root 17.6903 18.0477 4.57824 468.946 -79.5098 -470.159
lowerback 5.18917 3.49834 11.1004
upperback 0.21452 5.26209 3.6942
thorax -2.03804 2.46325 -2.66132
lowerneck -19.4094 -6.29472 -8.1005
upperneck 14.2099 -7.60949 6.7517
head 8.16064 -3.40057 2.58924
rclavicle 2.77056e-015 6.75868e-015
rhumerus 2.72578 8.65948 -76.3746
rradius 72.5566
rwrist -5.6105
rhand -10.4299 -7.13713
rfingers 7.12502
rthumb 15.5696 -36.5304
lclavicle 2.77056e-015 6.75868e-015
lhumerus -59.9528 -1.71654 81.8671
lradius 39.489
lwrist -4.85872
lhand -5.30137 11.1964
lfingers 7.12502
lthumb 20.5038 40.1337
rfemur 6.82925 1.03628 34.3073
rtibia 23.3089
rfoot 348.953 -1.70779
rtoes 1.37
lfemur -86.9113 13.7656 -17.9399
ltibia 84.3776
lfoot 734.542 32.7163
ltoes -4.09914
299
root 17.5401 18.022 4.58054 470.703 -79.3475 -471.629
lowerback 4.92347 3.57263 11.1179
upperback 0.150923 5.32828 3.68986
thorax -1.94538 2.49871 -2.66067
lowerneck -19.4207 -6.25601 -8.10132
upperneck 14.1768 -7.55931 6.78249
head 8.14894 -3.37378 2.60662
rclavicle -5.49391e-014 6.44062e-014
rhumerus 2.40695 8.85191 -76.5175
rradius 72.515
rwrist -5.50916
rhand -10.406 -7.13748
rfingers 7.12502
rthumb 15.5927 -36.529
lclavicle -5.49391e-014 6.44062e-014
lhumerus -59.8988 -1.75543 82.0895
lradius 39.7381
lwrist -4.76599
lhand -5.35607 11.2424
lfingers 7.12502
lthumb 20.4513 40.1853
rfemur 7.0507 1.27179 34.3255
rtibia 23.3319
rfoot 348.763 -1.4897
rtoes 0.416523
lfemur -85.72 14.2007 -17.7779
ltibia 82.0381
lfoot 737.173 16.1424
ltoes -4.65947
300
root 17.3875 17.994 4.58339 472.679 -79.1722 -473.305
lowerback 4.64359 3.65612 11.1199
upperback 0.0791601 5.40464 3.67961
thorax -1.85282 2.53922 -2.65691
lowerneck -19.4211 -6.20808 -8.09096
upperneck 14.1448 -7.49819 6.80089
head 8.13389 -3.34267 2.61978
rclavicle 2.41772e-014 6.75868e-014
rhumerus 2.07944 9.08621 -76.6565
rradius 72.4099
rwrist -5.40612
rhand -10.3751 -7.14277
rfingers 7.12502
rthumb 15.6224 -36.5319
lclavicle 2.41772e-014 6.75868e-014
lhumerus -59.8641 -1.80393 82.3207
lradius 40.0379
lwrist -4.65245
lhand -5.39726 11.3279
lfingers 7.12502
lthumb 20.4117 40.2751
rfemur 7.27059 1.5454 34.3427
rtibia 23.3537
rfoot 348.544 -1.30401
rtoes -0.52896
lfemur -84.4609 14.6906 -17.6094
ltibia 79.9702
lfoot 739.696 -0.377334
ltoes -5.01654
301
root 17.2321 17.964 4.58675 474.842 -78.9851 -475.157
lowerback 4.3454 3.74737 11.1066
upperback 0.00156183 5.4886 3.66026
thorax -1.75561 2.58386 -2.65278
lowerneck -19.4102 -6.15069 -8.06471
upperneck 14.1084 -7.42647 6.80512
head 8.11341 -3.30736 2.62731
rclavicle 1.64991e-014 -2.06736e-014
rhumerus 1.74513 9.3525 -76.7981
rradius 72.2378
rwrist -5.30991
rhand -10.3414 -7.16052
rfingers 7.12502
rthumb 15.6549 -36.5471
lclavicle 1.64991e-014 -2.06736e-014
lhumerus -59.8463 -1.86778 82.5604
lradius 40.3852
lwrist -4.51335
lhand -5.42284 11.4155
lfingers 7.12502
lthumb 20.3871 40.3654
rfemur 7.49895 1.85216 34.3523
rtibia 23.3647
rfoot 348.303 -1.15046
rtoes -1.42357
lfemur -83.1344 15.2241 -17.4313
ltibia 78.2271
lfoot 740.19 -1.68781
ltoes -5.16716
302
root 17.0735 17.9319 4.59084 477.165 -78.7911 -477.158
lowerback 4.03399 3.84173 11.0766
upperback -0.0883938 5.57556 3.628
thorax -1.66381 2.62973 -2.65191
lowerneck -19.3855 -6.08233 -8.02406
upperneck 14.0791 -7.34337 6.79896
head 8.09105 -3.2672 2.63085
rclavicle -8.36759e-015 -3.22031e-014
rhumerus 1.39001 9.65083 -76.9539
rradius 72.0019
rwrist -5.21991
rhand -10.2871 -7.18987
rfingers 7.12502
rthumb 15.7072 -36.5724
lclavicle -8.36759e-015 -3.22031e-014
lhumerus -59.8614 -1.95061 82.8074
lradius 40.7818
lwrist -4.32822
lhand -5.42917 11.4795
lfingers 7.12502
lthumb 20.381 40.4299
rfemur 7.7359 2.18086 34.3401
rtibia 23.3708
rfoot 348.038 -1.02329
rtoes -2.27251
lfemur -81.7407 15.7848 -17.2466
ltibia 76.5479
lfoot 740.768 -2.5346
ltoes -5.1915
303
root 16.9115 17.8978 4.59564 479.583 -78.5892 -479.249
lowerback 3.70897 3.93917 11.0308
upperback -0.188065 5.66533 3.58534
thorax -1.57462 2.67687 -2.65193
lowerneck -19.3453 -6.00396 -7.96719
upperneck 14.0547 -7.24959 6.77698
head 8.06567 -3.22299 2.62816
rclavicle 2.97494e-014 -2.98177e-014
rhumerus 1.00667 9.96739 -77.118
rradius 71.7107
rwrist -5.13369
rhand -10.2165 -7.22217
rfingers 7.12502
rthumb 15.7752 -36.5993
lclavicle 2.97494e-014 -2.98177e-014
lhumerus -59.9025 -2.05811 83.0676
lradius 41.2204
lwrist -4.09751
lhand -5.41749 11.4561
lfingers 7.12502
lthumb 20.3922 40.4053
rfemur 7.99394 2.52827 34.307
rtibia 23.3582
rfoot 347.762 -0.927424
rtoes -3.04005
lfemur -80.2657 16.3475 -17.0364
ltibia 74.9267
lfoot 741.409 -3.015
ltoes -5.16073
304
root 16.7459 17.862 4.60126 482.034 -78.3854 -481.368
lowerback 3.37924 4.02685 10.9755
upperback -0.304103 5.74321 3.52958
thorax -1.50099 2.71709 -2.65984
lowerneck -19.3017 -5.91384 -7.90058
upperneck 14.0493 -7.1428 6.7491
head 8.04451 -3.17268 2.62371
rclavicle -8.67198e-015 -1.98785e-014
rhumerus 0.587644 10.314 -77.3085
rradius 71.3708
rwrist -5.04377
rhand -10.1209 -7.25466
rfingers 7.12502
rthumb 15.8673 -36.6245
lclavicle -8.67198e-015 -1.98785e-014
lhumerus -59.981 -2.17979 83.3308
lradius 41.7003
lwrist -3.81564
lhand -5.38695 11.3567
lfingers 7.12502
lthumb 20.4216 40.3028
rfemur 8.27455 2.87612 34.2416
rtibia 23.3205
rfoot 347.488 -0.852183
rtoes -3.73937
lfemur -78.7068 16.8823 -16.7914
ltibia 73.3575
lfoot 742.073 -3.19785
ltoes -5.12294
305
root 16.5763 17.8245 4.60778 484.468 -78.1818 -483.465
lowerback 3.03112 4.10785 10.9101
upperback -0.430208 5.81059 3.46501
thorax -1.42888 2.75188 -2.66955
lowerneck -19.2503 -5.81411 -7.82266
upperneck 14.06 -7.02524 6.70909
head 8.02578 -3.11795 2.61488
rclavicle 2.43698e-014 3.02153e-014
rhumerus 0.121662 10.6777 -77.5127
rradius 70.9956
rwrist -4.93766
rhand -10.0317 -7.29017
rfingers 7.12502
rthumb 15.9531 -36.6532
lclavicle 2.43698e-014 3.02153e-014
lhumerus -60.0798 -2.31572 83.6017
lradius 42.2067
lwrist -3.50264
lhand -5.34913 11.194
lfingers 7.12502
lthumb 20.4579 40.1363
rfemur 8.58307 3.21511 34.1399
rtibia 23.2549
rfoot 347.223 -0.784107
rtoes -4.36188
lfemur -77.0551 17.3618 -16.4988
ltibia 71.8376
lfoot 742.724 -3.15973
ltoes -5.08912
306
root 16.4023 17.7859 4.61539 486.837 -77.9786 -485.497
lowerback 2.67692 4.18067 10.8377
upperback -0.576737 5.86827 3.39574
thorax -1.37612 2.78033 -2.68009
lowerneck -19.1922 -5.70739 -7.73945
upperneck 14.1017 -6.90003 6.65895
head 8.01522 -3.06033 2.60284
rclavicle 6.3052e-015 2.10712e-014
rhumerus -0.416121 11.0563 -77.728
rradius 70.5993
rwrist -4.80622
rhand -9.95995 -7.33277
rfingers 7.12502
rthumb 16.0222 -36.6902
lclavicle 6.3052e-015 2.10712e-014
lhumerus -60.2118 -2.46571 83.8806
lradius 42.7378
lwrist -3.17526
lhand -5.28505 11.0114
lfingers 7.12502
lthumb 20.5195 39.947
rfemur 8.92165 3.53563 33.9987
rtibia 23.1577
rfoot 346.978 -0.702053
rtoes -4.90785
lfemur -75.2987 17.7552 -16.1401
ltibia 70.3436
lfoot 743.347 -2.98835
ltoes -5.03104
307
root 16.2237 17.7465 4.62416 489.095 -77.7779 -487.415
lowerback 2.30103 4.2438 10.7666
upperback -0.73294 5.91106 3.32422
thorax -1.32268 2.80095 -2.69179
lowerneck -19.1368 -5.59511 -7.65407
upperneck 14.169 -6.76835 6.60491
head 8.01314 -2.99977 2.58986
rclavicle -6.7711e-015 -2.0276e-014
rhumerus -1.0236 11.4503 -77.9479
rradius 70.1935
rwrist -4.64838
rhand -9.91886 -7.37703
rfingers 7.12502
rthumb 16.0618 -36.7313
lclavicle -6.7711e-015 -2.0276e-014
lhumerus -60.3465 -2.61642 84.1597
lradius 43.2753
lwrist -2.86257
lhand -5.20302 10.8008
lfingers 7.12502
lthumb 20.5983 39.7279
rfemur 9.28746 3.83377 33.8203
rtibia 23.0313
rfoot 346.769 -0.58986
rtoes -5.39583
lfemur -73.4274 18.0303 -15.6986
ltibia 68.8611
lfoot 743.931 -2.75678
ltoes -4.85516
308
root 16.0399 17.7069 4.63417 491.205 -77.5857 -489.188
lowerback 1.90723 4.29713 10.6999
upperback -0.90371 5.93976 3.25099
thorax -1.27549 2.81358 -2.70632
lowerneck -19.0816 -5.48057 -7.56403
upperneck 14.2688 -6.63528 6.54339
head 8.02155 -2.93894 2.57372
rclavicle -6.5366e-014 -5.92378e-014
rhumerus -1.71892 11.85 -78.1741
rradius 69.7876
rwrist -4.46683
rhand -9.91032 -7.42936
rfingers 7.12502
rthumb 16.07 -36.783
lclavicle -6.5366e-014 -5.92378e-014
lhumerus -60.4868 -2.77137 84.4367
lradius 43.8149
lwrist -2.58128
lhand -5.1056 10.63
lfingers 7.12502
lthumb 20.6919 39.5469
rfemur 9.67958 4.10713 33.6041
rtibia 22.8803
rfoot 346.606 -0.432392
rtoes -5.84668
lfemur -71.4312 18.1544 -15.1698
ltibia 67.3715
lfoot 744.47 -2.55264
ltoes -4.53391
309
root 15.8506 17.6675 4.64542 493.174 -77.4023 -490.818
lowerback 1.48871 4.3431 10.6388
upperback -1.08822 5.95633 3.17827
thorax -1.22972 2.81935 -2.72164
lowerneck -19.0261 -5.36682 -7.47419
upperneck 14.3997 -6.5047 6.4799
head 8.04064 -2.87946 2.55653
rclavicle -2.73368e-014 -3.69739e-014
rhumerus -2.51095 12.2525 -78.4065
rradius 69.3888
rwrist -4.27005
rhand -9.94811 -7.49335
rfingers 7.12502
rthumb 16.0336 -36.8499
lclavicle -2.73368e-014 -3.69739e-014
lhumerus -60.6162 -2.91817 84.7054
lradius 44.3388
lwrist -2.34646
lhand -5.00373 10.5114
lfingers 7.12502
lthumb 20.7898 39.4176
rfemur 10.0887 4.36225 33.3518
rtibia 22.7173
rfoot 346.505 -0.215289
rtoes -6.28018
lfemur -69.3049 18.1031 -14.55
ltibia 65.859
lfoot 744.956 -2.44096
ltoes -4.09148
310
root 15.6552 17.6289 4.65799 495.001 -77.2275 -492.312
lowerback 1.04169 4.38374 10.5883
upperback -1.28321 5.96253 3.10676
thorax -1.17919 2.81935 -2.73935
lowerneck -18.9681 -5.25617 -7.38873
upperneck 14.5611 -6.37986 6.42022
head 8.07041 -2.82262 2.54053
rclavicle 6.52798e-014 4.8901e-014
rhumerus -3.40676 12.6545 -78.645
rradius 69.0053
rwrist -4.08181
rhand -10.0029 -7.56743
rfingers 7.12502
rthumb 15.9808 -36.9282
lclavicle 6.52798e-014 4.8901e-014
lhumerus -60.7256 -3.05099 84.9607
lradius 44.8406
lwrist -2.16563
lhand -4.90144 10.4763
lfingers 7.12502
lthumb 20.8881 39.3717
rfemur 10.5057 4.60862 33.0694
rtibia 22.5659
rfoot 346.472 0.0646703
rtoes -6.6994
lfemur -67.0409 17.8592 -13.8446
ltibia 64.3076
lfoot 745.38 -2.43728
ltoes -3.50823
